<svg preserveAspectRatio="none" width="100%" height="100%" overflow="visible" style="display: block;" viewBox="0 0 91.4286 16" fill="none" xmlns="http://www.w3.org/2000/svg">
<g id="Group 4">
<path id="INDEMNI" d="M7.358 16C6.54066 16 5.87807 15.3374 5.87807 14.5201V2C5.87807 0.89543 6.7735 0 7.87807 0H8.18573C8.8994 0 9.559 0.380288 9.91658 0.997915L16.3059 12.0338V1.47993C16.3059 0.662586 16.9685 0 17.7858 0C18.6032 0 19.2657 0.662587 19.2657 1.47993V14C19.2657 15.1046 18.3703 16 17.2657 16H16.8581C16.1492 16 15.4933 15.6247 15.134 15.0136L8.83793 4.30422V14.5201C8.83793 15.3374 8.17534 16 7.358 16Z" fill="var(--fill-0, #454545)"/>
<path id="INDEMNI_2" d="M24.2029 16C23.0984 16 22.2029 15.1046 22.2029 14V2C22.2029 0.89543 23.0984 0 24.2029 0H27.5671C30.1431 0 32.1206 0.698592 33.4995 2.09577C34.8936 3.47793 35.5906 5.45352 35.5906 8.02253C35.5906 10.5765 34.9087 12.5446 33.5449 13.9268C32.1812 15.3089 30.234 16 27.7035 16H24.2029ZM25.1578 13.4535H27.5671C29.2491 13.4535 30.4992 13.0028 31.3174 12.1014C32.1357 11.2 32.5448 9.84037 32.5448 8.02253C32.5448 6.17465 32.1357 4.8 31.3174 3.89859C30.4992 2.99718 29.2491 2.54648 27.5671 2.54648H25.1578V13.4535Z" fill="var(--fill-0, #454545)"/>
<path id="INDEMNI_3" d="M40.5309 16C39.4263 16 38.5309 15.1046 38.5309 14V2C38.5309 0.89543 39.4263 0 40.5309 0H48.0331C48.7363 0 49.3063 0.570049 49.3063 1.27324C49.3063 1.97643 48.7363 2.54648 48.0331 2.54648H41.4132V6.71549H48.0444C48.7413 6.71549 49.3063 7.2805 49.3063 7.97746C49.3063 8.67443 48.7413 9.23944 48.0444 9.23944H41.4132V13.4535H48.0331C48.7363 13.4535 49.3063 14.0236 49.3063 14.7268C49.3063 15.43 48.7363 16 48.0331 16H40.5309Z" fill="var(--fill-0, #454545)"/>
<path id="INDEMNI_4" d="M53.7307 16C52.9092 16 52.2433 15.3341 52.2433 14.5126V2C52.2433 0.89543 53.1387 0 54.2433 0H54.8447C55.6868 0 56.4388 0.527547 56.7253 1.31945L60.733 12.3944L64.7407 1.31945C65.0273 0.527545 65.7792 0 66.6213 0H67.2228C68.3273 0 69.2228 0.89543 69.2228 2V14.5126C69.2228 15.3341 68.5568 16 67.7353 16C66.9139 16 66.2479 15.3341 66.2479 14.5126V4.95775L62.6362 14.6743C62.345 15.4577 61.5973 15.9775 60.7615 15.9775H60.7045C59.8687 15.9775 59.1211 15.4577 58.8298 14.6743L55.2181 4.95775V14.5126C55.2181 15.3341 54.5522 16 53.7307 16Z" fill="var(--fill-0, #454545)"/>
<path id="INDEMNI_5" d="M72.165 16V2C72.165 0.89543 73.0604 0 74.165 0H74.4726C75.1863 0 75.8459 0.380288 76.2035 0.997915L82.5928 12.0338V1.47992C82.5928 0.662583 83.2554 0 84.0727 0C84.8901 0 85.5526 0.662585 85.5526 1.47992V16H82.0008L75.1248 4.30422V16H72.165Z" fill="var(--fill-0, #454545)"/>
<path id="INDEMNI_6" d="M89.9592 16C89.1477 16 88.4898 15.3421 88.4898 14.5306V1.46938C88.4898 0.657863 89.1477 0 89.9592 0C90.7707 0 91.4286 0.657863 91.4286 1.46938V14.5306C91.4286 15.3421 90.7707 16 89.9592 16Z" fill="var(--fill-0, #454545)"/>
<path id="INDEMNI_7" d="M1.46938 16C0.657863 16 0 15.3421 0 14.5306V1.46938C0 0.657863 0.657863 0 1.46938 0C2.28089 0 2.93876 0.657863 2.93876 1.46938V14.5306C2.93876 15.3421 2.28089 16 1.46938 16Z" fill="var(--fill-0, #454545)"/>
</g>
</svg>
