<svg preserveAspectRatio="none" width="100%" height="100%" overflow="visible" style="display: block;" viewBox="0 0 24 24" fill="none" xmlns="http://www.w3.org/2000/svg">
<g id="Group 2">
<path id="Vector" d="M23.0603 7.3335C22.4543 5.90193 21.5877 4.61674 20.4869 3.51305C20.1942 3.2203 19.8868 2.94511 19.5765 2.69041C17.4452 0.957306 14.7548 0 12 0C11.9561 0 11.9122 0 11.8683 0.00292754C9.59063 0.0234203 7.38034 0.6909 5.47451 1.92925C4.7719 2.38595 4.11027 2.91876 3.51598 3.51598C2.91583 4.11613 2.37717 4.78068 1.91754 5.49207C0.781654 7.2486 0.122957 9.28324 0.0146377 11.3764C0.00585509 11.5814 0 11.7892 0 12C0 14.7109 0.88119 17.2666 2.54696 19.395C3.77068 20.9583 5.37497 22.2025 7.18712 22.9959C8.70944 23.6633 10.3284 24 12 24C12.4626 24 12.931 23.9737 13.3935 23.921C16.0605 23.6136 18.5782 22.3928 20.484 20.4869C22.3635 18.6075 23.5784 16.1278 23.9063 13.5018C23.9678 13.01 24 12.5065 24 12.0029C24.0029 10.384 23.6868 8.81483 23.0603 7.3335ZM2.6465 11.5111C2.7314 9.87753 3.24372 8.2908 4.13076 6.92071C4.49085 6.36448 4.90949 5.8463 5.38082 5.3779C5.8463 4.91242 6.36155 4.49671 6.91193 4.13955C8.40205 3.17053 10.1322 2.65235 11.9151 2.63479H12.0059C13.3203 2.63479 14.585 2.9012 15.7531 3.41352L6.78312 6.71578L3.34325 15.5716C2.8807 14.4504 2.63479 13.2501 2.63479 12C2.63479 11.8361 2.63772 11.675 2.6465 11.5111ZM5.09685 18.3264L8.80898 8.77677L18.4611 5.22274C18.5167 5.27543 18.5723 5.3252 18.625 5.3779C19.1783 5.9312 19.6526 6.54306 20.0478 7.20468L11.1832 11.1364L7.10222 19.9805C6.36155 19.5267 5.68822 18.9676 5.09685 18.3264ZM9.51744 21.0315L13.1593 13.1447L21.0666 9.63747C21.2657 10.4045 21.3681 11.1949 21.3681 12.0029C21.3681 12.1727 21.3623 12.3396 21.3535 12.5094L15.5775 15.557L12.4274 21.3564C11.435 21.4033 10.4572 21.2891 9.51744 21.0315ZM18.625 18.625C17.8287 19.4213 16.8919 20.0625 15.879 20.525L17.5126 17.5126L20.4899 15.9405C20.0303 16.9329 19.4038 17.8463 18.625 18.625Z" fill="var(--fill-0, #454545)"/>
</g>
</svg>
